<svg width="36" height="51" viewBox="0 0 36 51" fill="none" xmlns="http://www.w3.org/2000/svg">
<path d="M10.5 28.9551C13.809 28.9551 16.5 26.4883 16.5 23.4551C16.5 20.4218 13.809 17.9551 10.5 17.9551C7.191 17.9551 4.5 20.4218 4.5 23.4551C4.5 26.4883 7.191 28.9551 10.5 28.9551ZM10.5 20.7051C12.1545 20.7051 13.5 21.9385 13.5 23.4551C13.5 24.9717 12.1545 26.2051 10.5 26.2051C8.8455 26.2051 7.5 24.9717 7.5 23.4551C7.5 21.9385 8.8455 20.7051 10.5 20.7051Z" fill="#02E4C0"/>
<path d="M9.70251 39.6949C9.93522 39.8641 10.214 39.9551 10.5 39.9551C10.786 39.9551 11.0648 39.8641 11.2975 39.6949C11.7155 39.3939 21.5398 32.1712 21.4999 23.1552C21.4999 16.9797 16.5651 11.9551 10.5 11.9551C4.43494 11.9551 -0.499879 16.9797 -0.499879 23.1482C-0.539754 32.1712 9.28451 39.3939 9.70251 39.6949ZM10.5 14.7551C15.0498 14.7551 18.7499 18.5225 18.7499 23.1622C18.7788 29.3754 12.7165 34.9545 10.5 36.7843C8.2849 34.9531 2.22122 29.3726 2.25009 23.1552C2.25009 18.5225 5.95018 14.7551 10.5 14.7551Z" fill="#02E4C0"/>
</svg>
