<svg width="30" height="30" viewBox="0 0 30 30" fill="none" xmlns="http://www.w3.org/2000/svg">
<path d="M9.7275 16.8016L13.2797 12.9748L5.51008 4.61813C4.90759 3.96907 3.86579 4.14486 3.48923 4.98323C2.59805 6.99803 2.9244 9.47258 4.46827 11.1493L9.7275 16.8016ZM18.2377 14.3541C20.1581 15.3141 22.8567 14.638 24.8525 12.488C27.2499 9.90529 27.7143 6.20022 25.8692 4.21247C24.0366 2.23824 20.5974 2.72504 18.1874 5.30776C16.1917 7.45778 15.5641 10.365 16.4553 12.4339L5.08332 24.685C4.84862 24.9378 4.71678 25.2807 4.71678 25.6383C4.71678 25.9959 4.84862 26.3388 5.08332 26.5916C5.31801 26.8444 5.63632 26.9865 5.96822 26.9865C6.30012 26.9865 6.61843 26.8444 6.85313 26.5916L14.6227 18.2484L22.3798 26.6051C22.496 26.7303 22.6339 26.8296 22.7858 26.8974C22.9376 26.9651 23.1003 27 23.2647 27C23.429 27 23.5917 26.9651 23.7436 26.8974C23.8954 26.8296 24.0334 26.7303 24.1496 26.6051C24.2658 26.4799 24.358 26.3313 24.4209 26.1677C24.4837 26.0042 24.5161 25.8289 24.5161 25.6518C24.5161 25.4748 24.4837 25.2995 24.4209 25.1359C24.358 24.9723 24.2658 24.8237 24.1496 24.6985L16.3925 16.3418L18.2377 14.3541Z" fill="#02E4C0"/>
</svg>
