<svg width="61" height="72" viewBox="0 0 61 72" fill="none" xmlns="http://www.w3.org/2000/svg">
<g clip-path="url(#clip0_62_2777)">
<path d="M18.8724 1.15634C18.529 1.15856 18.1915 1.24627 17.8904 1.41158C16.9018 1.95955 16.5392 3.22963 17.087 4.21752L19.3189 8.24783C13.9414 11.5748 10.3782 17.2579 10.3782 23.7442V24.9494C9.34531 23.7611 7.82727 23.0109 6.13109 23.0109C3.02328 23.0109 0.5 25.5342 0.5 28.6417V45.9876C0.5 49.0949 3.02352 51.6185 6.13109 51.6185C7.82727 51.6185 9.34531 50.868 10.378 49.6797V52.1095C10.378 55.3853 13.0585 58.0657 16.3344 58.0657H17.8456V65.782C17.8456 68.8898 20.3691 71.4131 23.4767 71.4131C26.5843 71.4131 29.1076 68.8895 29.1076 65.782V58.0657H31.7223V65.782C31.7223 68.8898 34.2458 71.4131 37.3534 71.4131C40.4609 71.4131 42.9842 68.8895 42.9842 65.782V58.0657H44.4957C47.7713 58.0657 50.4519 55.3853 50.4519 52.1095V49.6797C51.4845 50.868 53.0028 51.6185 54.699 51.6185C57.8066 51.6185 60.3298 49.0949 60.3298 45.9876V28.6417C60.3298 25.5342 57.8066 23.0109 54.699 23.0109C53.0028 23.0109 51.4845 23.7611 50.4519 24.9494V23.9481V23.8907C50.4523 23.8298 50.4519 23.781 50.4519 23.7442C50.4519 17.2591 46.8805 11.5816 41.5048 8.25439L43.7431 4.21752C44.2906 3.22963 43.9283 1.95955 42.9397 1.41158C42.6386 1.24627 42.3011 1.15856 41.9577 1.15634C41.2276 1.14931 40.5111 1.53416 40.1338 2.21502L37.7933 6.44314C35.5048 5.59869 33.0148 5.1358 30.4152 5.1358C27.8178 5.1358 25.3231 5.59377 23.0366 6.43658L20.6963 2.21502C20.3188 1.53416 19.6025 1.14978 18.8724 1.15634Z" fill="white"/>
<path d="M6.13143 24.4775C3.81252 24.4775 1.96729 26.3228 1.96729 28.6417V45.9875C1.96729 48.3065 3.81252 50.1517 6.13143 50.1517C8.45033 50.1517 10.2958 48.3065 10.2958 45.9875V28.6417C10.2958 26.3228 8.45033 24.4775 6.13143 24.4775ZM54.6996 24.4775C52.3804 24.4775 50.5352 26.3228 50.5352 28.6417V45.9875C50.5352 48.3065 52.3804 50.1517 54.6996 50.1517C57.0185 50.1517 58.8637 48.3065 58.8637 45.9875V28.6417C58.8637 26.3228 57.0185 24.4775 54.6996 24.4775Z" fill="#A4C639"/>
<path d="M23.4769 44.272C21.158 44.272 19.3125 46.1172 19.3125 48.4363V65.782C19.3125 68.1009 21.158 69.9461 23.4769 69.9461C25.7958 69.9461 27.641 68.1009 27.641 65.782V48.4363C27.641 46.1172 25.7958 44.272 23.4769 44.272ZM37.3535 44.272C35.0344 44.272 33.1891 46.1172 33.1891 48.4363V65.782C33.1891 68.1009 35.0344 69.9461 37.3535 69.9461C39.6724 69.9461 41.5177 68.1009 41.5177 65.782V48.4363C41.5177 46.1172 39.6724 44.272 37.3535 44.272Z" fill="#A4C639"/>
<path d="M18.8849 2.62313C18.7864 2.62432 18.6898 2.65061 18.6043 2.69954C18.3074 2.86407 18.2099 3.20532 18.3747 3.50297L21.3083 8.80242C15.6646 11.7391 11.8522 17.3198 11.8447 23.7248H48.985C48.9772 17.3198 45.1651 11.7389 39.5214 8.80242L42.4548 3.50321C42.6198 3.20555 42.5221 2.86407 42.2251 2.69954C42.1396 2.65058 42.0431 2.62428 41.9446 2.62313C41.7336 2.62079 41.5342 2.72625 41.4217 2.92922L38.4498 8.28586C36.0189 7.20774 33.2922 6.60235 30.4147 6.60235C27.5373 6.60235 24.8108 7.2075 22.3797 8.28586L19.4078 2.92922C19.3571 2.83519 19.2815 2.75691 19.1894 2.70292C19.0972 2.64894 18.9919 2.62134 18.8851 2.62313H18.8849ZM11.8447 25.1916V52.1095C11.8435 52.6994 11.9587 53.2838 12.1839 53.829C12.4091 54.3743 12.7397 54.8697 13.1569 55.2868C13.574 55.7039 14.0694 56.0345 14.6147 56.2597C15.1599 56.4848 15.7443 56.6 16.3342 56.5987H44.4955C45.0854 56.6 45.6698 56.4848 46.2151 56.2596C46.7604 56.0345 47.2558 55.7038 47.6729 55.2867C48.0901 54.8696 48.4207 54.3741 48.6459 53.8289C48.871 53.2836 48.9863 52.6992 48.985 52.1093V25.1918H11.8447V25.1916Z" fill="#A4C639"/>
<path d="M21.8441 13.8276C20.9964 13.8276 20.2944 14.5294 20.2944 15.3771C20.2944 16.2251 20.9964 16.9268 21.8441 16.9268C22.6921 16.9268 23.3938 16.2251 23.3938 15.3771C23.3938 14.5294 22.6921 13.8276 21.8441 13.8276ZM38.9858 13.8276C38.1379 13.8276 37.4361 14.5294 37.4361 15.3771C37.4361 16.2251 38.1379 16.9268 38.9858 16.9268C39.8336 16.9268 40.5355 16.2251 40.5355 15.3771C40.5355 14.5294 39.8336 13.8276 38.9858 13.8276Z" fill="white"/>
</g>
<defs>
<clipPath id="clip0_62_2777">
<rect width="60" height="70.5469" fill="white" transform="translate(0.5 0.955078)"/>
</clipPath>
</defs>
</svg>
