<svg width="57" height="47" viewBox="0 0 57 47" fill="none" xmlns="http://www.w3.org/2000/svg">
<g clip-path="url(#clip0_62_2784)">
<path d="M28.5658 0.00195312C13.5508 0.00195312 1.78732 18.862 0.674316 34.7913C5.38619 42.8647 16.7487 45.8994 28.5663 45.8994C40.3829 45.8994 51.7461 42.8647 56.4556 34.7911C55.3423 18.862 43.5804 0.00195312 28.566 0.00195312" fill="#B6DEFF"/>
<path d="M52.5317 30.9971C52.5317 30.9971 49.2154 23.9187 45.8447 19.789C42.4716 15.6577 38.3523 11.1592 35.9168 11.1592C33.4825 11.1592 26.6776 23.054 23.5559 23.054C20.4334 23.054 18.8107 17.6618 14.9719 17.6618C11.1315 17.6618 5.03014 30.6647 5.03014 30.6647L4.6167 32.869C4.6167 32.869 6.73639 42.147 28.9119 42.147C51.0884 42.147 52.8607 33.0213 52.8607 33.0213L52.5319 30.9968" fill="#66CC66"/>
<path d="M23.9035 28.1299C20.4595 28.1299 18.694 24.7751 17.7368 22.7043C16.876 20.8388 16.727 17.8935 14.2847 17.811C14.5246 17.717 14.7556 17.6615 14.9722 17.6615C18.811 17.6615 20.4337 23.0537 23.5562 23.0537C26.6779 23.0537 33.4828 11.1587 35.9171 11.1587C36.3758 11.1587 36.8925 11.3185 37.4531 11.6027C37.0384 11.5487 36.5066 11.5863 36.0969 11.9921C35.31 12.7691 28.1672 28.1299 23.9035 28.1299Z" fill="#17AD49"/>
</g>
<defs>
<clipPath id="clip0_62_2784">
<rect width="56" height="46" fill="white" transform="translate(0.5 0.00195312)"/>
</clipPath>
</defs>
</svg>
