<svg width="48" height="52" viewBox="0 0 48 52" fill="none" xmlns="http://www.w3.org/2000/svg">
<g clip-path="url(#clip0_62_2788)">
<path d="M44.2027 41.7312C43.8483 44.3817 42.0761 46.6752 39.595 47.6945C38.3796 48.2036 37.0633 48.3569 35.7465 48.2036C34.4808 48.0509 33.2148 47.6431 31.8984 46.8794C30.0753 45.8591 28.2524 44.2799 26.1259 41.9354C29.468 37.8073 31.4929 34.0359 32.2527 30.6729C32.6073 29.0928 32.6578 27.6657 32.5061 26.3405C32.3038 25.0666 31.8479 23.894 31.1387 22.8749C29.569 20.5817 26.9362 19.2565 23.9993 19.2565C21.0623 19.2565 18.4294 20.6327 16.8597 22.8749C16.1505 23.8941 15.6953 25.0666 15.4925 26.3405C15.2902 27.6657 15.3406 29.1436 15.7458 30.6731C16.5052 34.0357 18.5811 37.8583 21.8727 41.9856C19.7966 44.3307 17.9231 45.9104 16.1 46.9299C14.7836 47.6945 13.5176 48.1023 12.2519 48.2546C10.9471 48.4013 9.62638 48.2266 8.40355 47.7455C5.92229 46.7262 4.15042 44.432 3.79572 41.782C3.64407 40.5083 3.74523 39.2344 4.25158 37.8073C4.40323 37.2973 4.65677 36.7886 4.90958 36.1766C5.26429 35.3616 5.66948 34.4946 6.07412 33.6279L6.12516 33.5267C9.61858 25.9327 13.3659 18.1864 17.2649 10.6441L17.4167 10.3377C17.8219 9.57404 18.2266 8.75896 18.6321 7.99415C19.0369 7.17852 19.4926 6.41389 20.0495 5.75089C21.1128 4.52763 22.5307 3.86518 24.1005 3.86518C25.6702 3.86518 27.0879 4.52763 28.1513 5.75107C28.7083 6.41389 29.164 7.17852 29.5692 7.99433C29.9743 8.75896 30.379 9.57404 30.7842 10.3377L30.9366 10.6441C34.7845 18.2372 38.5318 25.9835 42.0256 33.5775V33.6279C42.4308 34.4436 42.785 35.3616 43.1902 36.1766C43.4435 36.7886 43.6965 37.2972 43.8482 37.8073C44.2534 39.1322 44.4052 40.4069 44.2029 41.7312H44.2027ZM23.9993 39.3357C21.2652 35.8706 19.4926 32.6087 18.8851 29.8574C18.6323 28.685 18.5811 27.6657 18.7335 26.7483C18.8344 25.9327 19.1386 25.2188 19.5431 24.6068C20.5053 23.2321 22.1255 22.3641 23.9993 22.3641C25.8729 22.3641 27.5438 23.1803 28.4551 24.6068C28.8599 25.2188 29.164 25.9327 29.2651 26.7483C29.417 27.6657 29.3663 28.7358 29.1133 29.8574C28.5058 32.5582 26.7334 35.8198 23.9993 39.3357ZM46.8358 36.6859C46.5828 36.0743 46.3294 35.412 46.0764 34.8514C45.6712 33.9345 45.2661 33.0675 44.9115 32.2519L44.8609 32.2014C41.3674 24.5564 37.6201 16.8101 33.6705 9.16678L33.5188 8.86004C33.1136 8.09559 32.7084 7.27996 32.3038 6.4647C31.7971 5.54689 31.2905 4.57955 30.4807 3.66155C28.8598 1.62303 26.531 0.501953 24.0496 0.501953C21.5178 0.501953 19.2394 1.62303 17.5682 3.5601C16.809 4.47718 16.252 5.44544 15.7457 6.36344C15.3405 7.17852 14.9353 7.99415 14.5303 8.75896L14.3784 9.06385C10.4798 16.7083 6.682 24.4551 3.18802 32.0996L3.13754 32.2014C2.78283 33.0165 2.37764 33.8826 1.97245 34.8006C1.70157 35.4046 1.4484 36.0165 1.21329 36.6355C0.554739 38.5206 0.352419 40.3047 0.605411 42.139C1.1628 45.9614 3.69456 49.1726 7.18835 50.5991C8.50453 51.1601 9.87175 51.4147 11.2898 51.4147C11.6948 51.4147 12.2012 51.3637 12.6064 51.3124C14.2771 51.1082 15.9986 50.5487 17.6693 49.5798C19.7458 48.4078 21.7207 46.7262 23.9484 44.2799C26.1762 46.7262 28.2018 48.4079 30.2272 49.5798C31.8984 50.5487 33.6198 51.1082 35.2907 51.3124C35.6959 51.3637 36.2022 51.4147 36.6072 51.4147C38.0251 51.4147 39.4426 51.1601 40.7087 50.5991C44.2532 49.1726 46.7343 45.9106 47.2913 42.139C47.6965 40.3549 47.4936 38.5722 46.8356 36.6857L46.8358 36.6859Z" fill="#E0565B"/>
</g>
<defs>
<clipPath id="clip0_62_2788">
<rect width="47" height="51" fill="white" transform="translate(0.5 0.501953)"/>
</clipPath>
</defs>
</svg>
