<svg width="30" height="30" viewBox="0 0 30 30" fill="none" xmlns="http://www.w3.org/2000/svg">
<path d="M12.303 13.609C13.629 15.741 13.434 18.25 11.848 19.264C10.262 20.252 7.896 19.329 6.557 17.197C5.231 15.065 5.439 12.53 7.025 11.542C8.611 10.554 10.977 11.477 12.303 13.609ZM14.5 22.475C17.1 22.475 17.75 21.5 17.75 21.5C17.75 21.5 17.1 24.1 14.5 24.1C11.9 24.1 11.25 21.539 11.25 21.5C11.25 21.5 11.9 22.475 14.5 22.475ZM21.975 11.542C23.561 12.53 23.769 15.065 22.443 17.197C21.104 19.329 18.738 20.252 17.152 19.264C15.566 18.25 15.371 15.741 16.697 13.609C18.023 11.477 20.389 10.554 21.975 11.542ZM14.5 25.4C17.75 25.4 24.9 18.718 24.9 13.7C24.9 8.682 20.233 4.6 14.5 4.6C8.767 4.6 4.1 8.682 4.1 13.7C4.1 18.718 11.25 25.4 14.5 25.4ZM14.5 2C21.65 2 27.5 7.252 27.5 13.7C27.5 19.004 20.116 28 14.5 28C8.884 28 1.5 19.004 1.5 13.7C1.5 7.252 7.35 2 14.5 2Z" fill="#02E4C0"/>
</svg>
