<svg width="28" height="28" viewBox="0 0 28 28" fill="none" xmlns="http://www.w3.org/2000/svg">
<path d="M26.42 0.955078H1.58C0.982625 0.955078 0.5 1.4377 0.5 2.03508V26.8751C0.5 27.4725 0.982625 27.9551 1.58 27.9551H26.42C27.0174 27.9551 27.5 27.4725 27.5 26.8751V2.03508C27.5 1.4377 27.0174 0.955078 26.42 0.955078ZM23.3015 8.8357H21.1449C19.454 8.8357 19.1266 9.63895 19.1266 10.8202V13.4223H23.1631L22.6366 17.496H19.1266V27.9551H14.918V17.4993H11.3979V13.4223H14.918V10.4186C14.918 6.9322 17.0476 5.03208 20.1594 5.03208C21.6511 5.03208 22.9303 5.14345 23.3049 5.19408V8.8357H23.3015Z" fill="white"/>
</svg>
