<svg width="30" height="30" viewBox="0 0 30 30" fill="none" xmlns="http://www.w3.org/2000/svg">
<path d="M22.975 9.00003C21.235 9.00003 19.5917 9.67661 18.4196 10.8485L9.925 18.3876C9.15167 19.1608 8.12458 19.5836 7.025 19.5836C4.76542 19.5836 2.91667 17.7593 2.91667 15.5C2.91667 13.2407 4.76542 11.4164 7.025 11.4164C8.12458 11.4164 9.15167 11.8392 9.97333 12.6608L11.3388 13.869L13.1875 12.25L11.6408 10.9089C11.0357 10.3016 10.3163 9.82024 9.52399 9.49259C8.73172 9.16494 7.88236 8.99753 7.025 9.00003C3.42417 9.00003 0.5 11.9238 0.5 15.5C0.5 19.0762 3.42417 22 7.025 22C8.765 22 10.4083 21.3234 11.5804 20.1515L20.075 12.6125C20.8483 11.8392 21.8754 11.4164 22.975 11.4164C25.2346 11.4164 27.0833 13.2407 27.0833 15.5C27.0833 17.7593 25.2346 19.5836 22.975 19.5836C21.8875 19.5836 20.8483 19.1608 20.0267 18.3392L18.625 17.119L16.8125 18.7379L18.3592 20.0911C18.9659 20.6954 19.6859 21.174 20.478 21.4995C21.2701 21.8249 22.1186 21.9909 22.975 21.9879C26.5758 21.9879 29.5 19.0762 29.5 15.5C29.5 11.8755 26.5758 9.00003 22.975 9.00003Z" fill="#02E4C0"/>
</svg>
