<svg width="28" height="28" viewBox="0 0 28 28" fill="none" xmlns="http://www.w3.org/2000/svg">
<path d="M26.42 0.955078H1.58C0.982625 0.955078 0.5 1.4377 0.5 2.03508V26.8751C0.5 27.4725 0.982625 27.9551 1.58 27.9551H26.42C27.0174 27.9551 27.5 27.4725 27.5 26.8751V2.03508C27.5 1.4377 27.0174 0.955078 26.42 0.955078ZM8.50887 23.9625H4.50275V11.0767H8.50887V23.9625ZM6.5075 9.31495C6.04825 9.31495 5.59932 9.17877 5.21747 8.92363C4.83562 8.66848 4.538 8.30583 4.36225 7.88154C4.18651 7.45725 4.14052 6.99038 4.23012 6.53995C4.31971 6.08953 4.54086 5.67579 4.8656 5.35105C5.19034 5.02631 5.60408 4.80516 6.0545 4.71557C6.50492 4.62597 6.9718 4.67196 7.39609 4.8477C7.82038 5.02345 8.18303 5.32107 8.43817 5.70292C8.69332 6.08477 8.8295 6.5337 8.8295 6.99295C8.82612 8.27545 7.78663 9.31495 6.5075 9.31495ZM23.5074 23.9625H19.5046V17.6951C19.5046 16.2 19.4776 14.2796 17.4223 14.2796C15.3399 14.2796 15.0193 15.9063 15.0193 17.5871V23.9625H11.0199V11.0767H14.8606V12.8385H14.9146C15.4479 11.826 16.754 10.7561 18.7048 10.7561C22.7615 10.7561 23.5074 13.4257 23.5074 16.8952V23.9625V23.9625Z" fill="white"/>
</svg>
