<svg width="61" height="61" viewBox="0 0 61 61" fill="none" xmlns="http://www.w3.org/2000/svg">
<g clip-path="url(#clip0_62_2764)">
<path d="M13.64 0.228516H47.36C54.6172 0.228516 60.5 6.11133 60.5 13.3685V47.0885C60.5 54.3457 54.6172 60.2285 47.36 60.2285H13.64C6.38281 60.2285 0.5 54.3457 0.5 47.0885V13.3685C0.5 6.11133 6.38281 0.228516 13.64 0.228516Z" fill="url(#paint0_linear_62_2764)"/>
<path d="M19.7288 43.7775L19.7344 43.7794L17.683 47.3325C16.9341 48.6295 15.2757 49.0739 13.9787 48.3251C12.6819 47.5762 12.2372 45.9178 12.9861 44.6208L14.4973 42.0033L14.6424 41.752C14.9014 41.3798 15.5405 40.7372 16.819 40.8581C16.819 40.8581 19.8277 41.1846 20.0455 42.7484C20.0455 42.7484 20.075 43.2628 19.7288 43.7775ZM48.8248 34.7025H42.4278C41.9921 34.6732 41.802 34.5176 41.727 34.4271L41.7223 34.4189L34.8746 22.5581L34.8657 22.564L34.4551 21.9752C33.7819 20.9459 32.7132 23.5784 32.7132 23.5784C31.437 26.5118 32.8944 29.8467 33.4023 30.8548L42.9137 47.329C43.6623 48.6258 45.3207 49.0704 46.618 48.3213C47.9148 47.5725 48.3594 45.9141 47.6103 44.617L45.2321 40.4977C45.1859 40.3978 45.1058 40.1269 45.5935 40.1257H48.8248C50.3225 40.1257 51.5366 38.9116 51.5366 37.414C51.5366 35.9163 50.3225 34.7023 48.8248 34.7023V34.7025ZM36.3997 38.3887C36.3997 38.3887 36.7412 40.1257 35.42 40.1257H11.7718C10.2741 40.1257 9.06006 38.9116 9.06006 37.414C9.06006 35.9163 10.2741 34.7023 11.7718 34.7023H17.8515C18.833 34.6455 19.0655 34.0788 19.0655 34.0788L19.0712 34.0816L27.0071 20.336L27.0048 20.3355C27.1494 20.07 27.0289 19.819 27.008 19.7794L24.387 15.2398C23.6382 13.943 24.0826 12.2843 25.3796 11.5357C26.6766 10.7869 28.3351 11.231 29.0839 12.528L30.2994 14.6334L31.5127 12.5318C32.2616 11.235 33.92 10.7904 35.217 11.5394C36.5141 12.2883 36.9584 13.9465 36.2096 15.2435L25.1663 34.3709C25.118 34.4873 25.1033 34.6702 25.4626 34.7023H32.0635L32.0649 34.7667C32.0649 34.7667 35.8801 34.826 36.3997 38.3887Z" fill="white"/>
</g>
<defs>
<linearGradient id="paint0_linear_62_2764" x1="30.5" y1="0.228516" x2="30.5" y2="60.2285" gradientUnits="userSpaceOnUse">
<stop stop-color="#17C9FB"/>
<stop offset="1" stop-color="#1A74E8"/>
</linearGradient>
<clipPath id="clip0_62_2764">
<rect width="60" height="60" fill="white" transform="translate(0.5 0.228516)"/>
</clipPath>
</defs>
</svg>
