<svg width="28" height="31" viewBox="0 0 28 31" fill="none" xmlns="http://www.w3.org/2000/svg">
<path d="M26.5 7.5684C25.5071 7.99799 24.4266 8.30716 23.3136 8.42758C24.4691 7.73905 25.3344 6.6513 25.7472 5.3684C24.6629 6.01535 23.475 6.469 22.2363 6.70923C21.7186 6.15411 21.0924 5.71188 20.3969 5.41009C19.7013 5.10829 18.9512 4.95341 18.1933 4.95509C15.127 4.95509 12.6609 7.44799 12.6609 10.5072C12.6609 10.9367 12.7128 11.3663 12.7972 11.7796C8.20581 11.5388 4.11086 9.33882 1.38848 5.97048C0.892427 6.82026 0.63248 7.78784 0.635681 8.77254C0.635681 10.6992 1.61237 12.398 3.10173 13.3971C2.22403 13.3624 1.36687 13.1205 0.599988 12.6909V12.7592C0.599988 15.4572 2.50144 17.693 5.03563 18.2072C4.55981 18.3311 4.07033 18.3945 3.57872 18.3959C3.21854 18.3959 2.87784 18.3601 2.53389 18.3113C3.23477 20.5113 5.27575 22.1092 7.70611 22.1613C5.80465 23.6551 3.42297 24.5338 0.836859 24.5338C0.372852 24.5338 -0.0554621 24.5175 -0.5 24.4654C1.95307 26.0438 4.86366 26.9551 7.99814 26.9551C18.1738 26.9551 23.7419 18.5001 23.7419 11.1613C23.7419 10.9205 23.7419 10.6796 23.7257 10.4388C24.803 9.64799 25.7472 8.6684 26.5 7.5684Z" fill="white"/>
</svg>
